<?xml version='1.0' encoding='utf-8'?>
<svg xmlns="http://www.w3.org/2000/svg" width="100%" viewBox="0 0 680 400">
  <title>Certy app icon</title>
  <desc>A modern icon for Certy — a ribbon-sealed certificate with a layered stack effect, in teal and coral</desc>

  <defs>
    
  </defs>

  <g transform="translate(220, 40)">

    <rect x="18" y="20" width="204" height="268" rx="14" fill="#085041" opacity="0.6"/>
    <rect x="10" y="10" width="204" height="268" rx="14" fill="#0F6E56" opacity="0.8"/>

    <rect x="0" y="0" width="204" height="268" rx="14" fill="#E1F5EE"/>
    <rect x="0" y="0" width="204" height="52" rx="14" fill="#1D9E75"/>
    <rect x="0" y="38" width="204" height="14" fill="#1D9E75"/>

    <line x1="24" y1="16" x2="152" y2="16" opacity="0.7"/>
    <line x1="24" y1="30" x2="120" y2="30" opacity="0.4"/>

    <line x1="24" y1="86" x2="180" y2="86"/>
    <line x1="24" y1="110" x2="180" y2="110"/>
    <line x1="24" y1="134" x2="140" y2="134"/>

    <line x1="24" y1="164" x2="180" y2="164"/>
    <line x1="24" y1="188" x2="180" y2="188"/>
    <line x1="24" y1="212" x2="100" y2="212"/>

    <circle cx="102" cy="248" r="28" fill="#1D9E75" opacity="0.15"/>
    <circle cx="102" cy="248" r="22" fill="none" stroke="#1D9E75" stroke-width="2.5"/>
    <circle cx="102" cy="248" r="14" fill="#1D9E75" opacity="0.35"/>

    <g transform="translate(102, 248)">
      <polygon points="0,-8 2.4,-2.4 8,-2.4 3.6,1.6 5.6,7.6 0,4 -5.6,7.6 -3.6,1.6 -8,-2.4 -2.4,-2.4" fill="#0F6E56"/>
    </g>

    <rect x="76" y="262" width="18" height="36" rx="3" fill="#D85A30"/>
    <rect x="110" y="262" width="18" height="36" rx="3" fill="#D85A30"/>

    <polygon points="76,268 84,280 76,292" fill="#993C1D"/>
    <polygon points="128,268 120,280 128,292" fill="#993C1D"/>

    <rect x="68" y="265" width="68" height="6" rx="3" fill="#F0997B"/>
  </g>

  <text x="340" y="358" text-anchor="middle" font-family="system-ui, sans-serif" font-size="22" font-weight="700" letter-spacing="3" fill="#0F6E56">CERTY</text>
  <text x="340" y="378" text-anchor="middle" font-family="system-ui, sans-serif" font-size="11" letter-spacing="2" fill="#1D9E75" opacity="0.7">BULK CERTIFICATE GENERATOR</text>

</svg>
